<svg xmlns="http://www.w3.org/2000/svg" width="1200" height="320" viewBox="0 0 1200 320" role="img" aria-labelledby="title desc">
  <title id="title">Visella Estesia</title>
  <desc id="desc">Stories, creative technology, thoughtful systems</desc>
  <defs>
    <linearGradient id="bg" x1="0" y1="0" x2="1" y2="1">
      <stop offset="0%" stop-color="#fbf8fc"/>
      <stop offset="45%" stop-color="#eee6f5"/>
      <stop offset="100%" stop-color="#f7edf3"/>
    </linearGradient>
    <radialGradient id="glow" cx="50%" cy="42%" r="58%">
      <stop offset="0%" stop-color="#ffffff" stop-opacity=".92"/>
      <stop offset="100%" stop-color="#ffffff" stop-opacity="0"/>
    </radialGradient>
    <filter id="soft" x="-20%" y="-20%" width="140%" height="140%">
      <feGaussianBlur stdDeviation="10"/>
    </filter>
  </defs>

  <rect width="1200" height="320" rx="28" fill="url(#bg)"/>
  <ellipse cx="600" cy="135" rx="360" ry="150" fill="url(#glow)"/>

  <g opacity=".28" fill="none" stroke="#9f86bd" stroke-width="2">
    <path d="M80 252 C150 205 195 214 245 150"/>
    <path d="M1120 252 C1050 205 1005 214 955 150"/>
    <path d="M118 225 C98 192 96 165 118 138"/>
    <path d="M1082 225 C1102 192 1104 165 1082 138"/>
  </g>

  <g opacity=".55" fill="#cbb8dc">
    <circle cx="96" cy="122" r="5"/>
    <circle cx="128" cy="100" r="3"/>
    <circle cx="160" cy="136" r="4"/>
    <circle cx="1104" cy="122" r="5"/>
    <circle cx="1072" cy="100" r="3"/>
    <circle cx="1040" cy="136" r="4"/>
  </g>

  <g text-anchor="middle" fill="#4b3f5a">
    <text x="600" y="126" font-size="62" font-family="Georgia, 'Times New Roman', serif" font-style="italic">Visella Estesia</text>
    <text x="600" y="174" font-size="22" font-family="Arial, Helvetica, sans-serif" letter-spacing="4">STORIES · CREATIVE TECHNOLOGY · THOUGHTFUL SYSTEMS</text>
    <text x="600" y="223" font-size="18" font-family="Georgia, 'Times New Roman', serif" font-style="italic" fill="#7c698f">Soft systems. Strong stories. Thoughtful technology.</text>
  </g>

  <g fill="#9f86bd" opacity=".75">
    <path d="M600 58 l6 14 14 6-14 6-6 14-6-14-14-6 14-6z"/>
    <circle cx="560" cy="62" r="2.6"/>
    <circle cx="640" cy="62" r="2.6"/>
  </g>

  <rect x="20" y="20" width="1160" height="280" rx="22" fill="none" stroke="#ffffff" stroke-opacity=".75"/>
</svg>